<svg width="270" height="270" viewBox="0 0 270 270" fill="none" xmlns="http://www.w3.org/2000/svg">
<g filter="url(#filter0_dd_672_138)">
<path d="M141.438 188.17L192.328 130.188C193.084 129.328 193.674 128.317 194.064 127.213C194.453 126.109 194.633 124.935 194.595 123.756C194.557 122.578 194.301 121.419 193.842 120.347C193.382 119.274 192.728 118.309 191.918 117.506L165.608 91.3977C164.047 89.8609 162.002 89.0051 159.878 89H110.728C108.602 89.0009 106.556 89.8573 104.998 91.3977L78.6777 117.506C77.8686 118.309 77.216 119.273 76.7574 120.345C76.2988 121.416 76.0431 122.574 76.005 123.751C75.9669 124.928 76.1472 126.102 76.5354 127.204C76.9237 128.307 77.5124 129.317 78.2677 130.177L129.158 188.17C129.944 189.066 130.895 189.78 131.951 190.268C133.008 190.756 134.146 191.008 135.298 191.008C136.449 191.008 137.588 190.756 138.644 190.268C139.7 189.78 140.651 189.066 141.438 188.17ZM133.588 182.053L114.928 137.125C114.75 136.697 114.675 136.228 114.709 135.762C114.744 135.295 114.888 134.845 115.127 134.452C115.367 134.06 115.694 133.737 116.08 133.513C116.466 133.29 116.898 133.172 117.338 133.171H153.258C153.697 133.173 154.129 133.291 154.515 133.515C154.901 133.738 155.228 134.06 155.468 134.453C155.708 134.845 155.853 135.294 155.89 135.761C155.926 136.227 155.853 136.696 155.678 137.125L136.998 182.053C136.85 182.403 136.61 182.7 136.308 182.908C136.005 183.117 135.653 183.227 135.293 183.227C134.933 183.227 134.58 183.117 134.278 182.908C133.975 182.7 133.736 182.403 133.588 182.053ZM184.158 122.909L168.718 125.712C168.39 125.775 168.054 125.762 167.731 125.674C167.409 125.585 167.108 125.424 166.85 125.2C166.592 124.976 166.382 124.696 166.235 124.378C166.088 124.06 166.007 123.711 165.998 123.357L165.378 101.202C165.387 101.007 165.448 100.818 165.551 100.657C165.655 100.495 165.798 100.367 165.965 100.287C166.133 100.207 166.317 100.177 166.5 100.201C166.682 100.225 166.854 100.302 166.998 100.424L185.328 118.689C185.64 119.001 185.866 119.4 185.978 119.84C186.091 120.281 186.086 120.746 185.964 121.184C185.843 121.622 185.61 122.015 185.291 122.32C184.972 122.624 184.579 122.828 184.158 122.909ZM169.418 131.626L181.848 129.122C182.05 129.089 182.256 129.123 182.44 129.219C182.623 129.315 182.774 129.468 182.873 129.658C182.973 129.849 183.015 130.067 182.994 130.283C182.973 130.5 182.891 130.704 182.758 130.87L151.318 167.571C151.153 167.741 150.937 167.846 150.708 167.867C150.479 167.888 150.25 167.825 150.06 167.687C149.87 167.549 149.73 167.346 149.664 167.111C149.598 166.877 149.61 166.625 149.698 166.399L163.078 136.795C163.683 135.466 164.571 134.306 165.672 133.409C166.773 132.511 168.056 131.901 169.418 131.626ZM159.928 95.671L160.358 116.888C160.363 117.172 160.285 117.451 160.134 117.685C159.983 117.919 159.766 118.097 159.515 118.192C159.264 118.288 158.991 118.297 158.734 118.217C158.478 118.138 158.252 117.975 158.088 117.751L142.998 97.0883C142.771 96.7747 142.631 96.3999 142.593 96.0062C142.555 95.6124 142.62 95.2151 142.782 94.8588C142.944 94.5026 143.196 94.2014 143.51 93.9891C143.823 93.7768 144.186 93.6618 144.558 93.6569L157.978 93.593C158.491 93.6065 158.98 93.8298 159.342 94.2166C159.705 94.6034 159.915 95.1241 159.928 95.671ZM152.638 126.969H117.998C117.586 126.967 117.182 126.843 116.833 126.609C116.484 126.376 116.203 126.043 116.022 125.648C115.841 125.254 115.767 124.813 115.809 124.376C115.85 123.939 116.006 123.523 116.258 123.176L133.128 99.8484C133.383 99.4926 133.713 99.2043 134.09 99.0059C134.467 98.8075 134.882 98.7043 135.303 98.7043C135.723 98.7043 136.138 98.8075 136.515 99.0059C136.893 99.2043 137.222 99.4926 137.478 99.8484L154.388 123.176C154.64 123.524 154.796 123.941 154.837 124.379C154.878 124.817 154.803 125.258 154.621 125.653C154.439 126.048 154.157 126.381 153.806 126.613C153.455 126.846 153.051 126.969 152.638 126.969ZM112.638 93.593L126.058 93.6569C126.429 93.6618 126.792 93.7768 127.106 93.9891C127.419 94.2014 127.671 94.5026 127.833 94.8588C127.995 95.2151 128.061 95.6124 128.022 96.0062C127.984 96.3999 127.844 96.7747 127.618 97.0883L112.508 117.773C112.345 117.999 112.12 118.164 111.863 118.245C111.607 118.325 111.333 118.317 111.082 118.221C110.83 118.125 110.614 117.946 110.464 117.71C110.314 117.475 110.238 117.194 110.248 116.91L110.668 95.6923C110.676 95.1326 110.89 94.5987 111.264 94.2059C111.638 93.8131 112.142 93.5929 112.668 93.593H112.638ZM105.158 101.202L104.548 123.357C104.537 123.709 104.455 124.054 104.309 124.369C104.162 124.685 103.954 124.963 103.698 125.186C103.443 125.409 103.146 125.571 102.826 125.662C102.507 125.753 102.174 125.77 101.848 125.712L86.4377 122.909C86.0044 122.84 85.5987 122.64 85.2683 122.334C84.9379 122.027 84.6965 121.627 84.5725 121.179C84.4486 120.731 84.4472 120.255 84.5686 119.806C84.6899 119.358 84.929 118.955 85.2577 118.647L103.588 100.424C103.731 100.308 103.902 100.236 104.081 100.215C104.26 100.194 104.441 100.225 104.605 100.305C104.769 100.385 104.91 100.51 105.012 100.668C105.115 100.826 105.175 101.01 105.188 101.202H105.158ZM88.7477 129.111L101.188 131.626C102.549 131.902 103.831 132.514 104.931 133.413C106.03 134.313 106.916 135.475 107.518 136.805L120.908 166.399C120.995 166.625 121.007 166.877 120.941 167.111C120.875 167.346 120.735 167.549 120.545 167.687C120.355 167.825 120.126 167.888 119.897 167.867C119.668 167.846 119.453 167.741 119.288 167.571L87.8377 130.859C87.7046 130.694 87.6222 130.489 87.6015 130.273C87.5808 130.056 87.6228 129.838 87.7219 129.648C87.821 129.457 87.9724 129.304 88.1558 129.208C88.3392 129.112 88.5458 129.078 88.7477 129.111Z" fill="white"/>
</g>
<g opacity="0.3" filter="url(#filter1_ddf_672_138)">
<circle cx="135" cy="135" r="85" fill="white"/>
</g>
<defs>
<filter id="filter0_dd_672_138" x="26" y="39" width="218.601" height="202.008" filterUnits="userSpaceOnUse" color-interpolation-filters="sRGB">
<feFlood flood-opacity="0" result="BackgroundImageFix"/>
<feColorMatrix in="SourceAlpha" type="matrix" values="0 0 0 0 0 0 0 0 0 0 0 0 0 0 0 0 0 0 127 0" result="hardAlpha"/>
<feOffset/>
<feGaussianBlur stdDeviation="25"/>
<feComposite in2="hardAlpha" operator="out"/>
<feColorMatrix type="matrix" values="0 0 0 0 1 0 0 0 0 1 0 0 0 0 1 0 0 0 0.25 0"/>
<feBlend mode="normal" in2="BackgroundImageFix" result="effect1_dropShadow_672_138"/>
<feColorMatrix in="SourceAlpha" type="matrix" values="0 0 0 0 0 0 0 0 0 0 0 0 0 0 0 0 0 0 127 0" result="hardAlpha"/>
<feOffset dy="4"/>
<feGaussianBlur stdDeviation="6"/>
<feComposite in2="hardAlpha" operator="out"/>
<feColorMatrix type="matrix" values="0 0 0 0 1 0 0 0 0 1 0 0 0 0 1 0 0 0 0.25 0"/>
<feBlend mode="normal" in2="effect1_dropShadow_672_138" result="effect2_dropShadow_672_138"/>
<feBlend mode="normal" in="SourceGraphic" in2="effect2_dropShadow_672_138" result="shape"/>
</filter>
<filter id="filter1_ddf_672_138" x="0" y="0" width="270" height="270" filterUnits="userSpaceOnUse" color-interpolation-filters="sRGB">
<feFlood flood-opacity="0" result="BackgroundImageFix"/>
<feColorMatrix in="SourceAlpha" type="matrix" values="0 0 0 0 0 0 0 0 0 0 0 0 0 0 0 0 0 0 127 0" result="hardAlpha"/>
<feOffset/>
<feGaussianBlur stdDeviation="25"/>
<feComposite in2="hardAlpha" operator="out"/>
<feColorMatrix type="matrix" values="0 0 0 0 1 0 0 0 0 1 0 0 0 0 1 0 0 0 0.25 0"/>
<feBlend mode="normal" in2="BackgroundImageFix" result="effect1_dropShadow_672_138"/>
<feColorMatrix in="SourceAlpha" type="matrix" values="0 0 0 0 0 0 0 0 0 0 0 0 0 0 0 0 0 0 127 0" result="hardAlpha"/>
<feOffset dy="4"/>
<feGaussianBlur stdDeviation="6"/>
<feComposite in2="hardAlpha" operator="out"/>
<feColorMatrix type="matrix" values="0 0 0 0 1 0 0 0 0 1 0 0 0 0 1 0 0 0 0.25 0"/>
<feBlend mode="normal" in2="effect1_dropShadow_672_138" result="effect2_dropShadow_672_138"/>
<feBlend mode="normal" in="SourceGraphic" in2="effect2_dropShadow_672_138" result="shape"/>
<feGaussianBlur stdDeviation="25" result="effect3_foregroundBlur_672_138"/>
</filter>
</defs>
</svg>
