<svg width="809" height="124" viewBox="0 0 809 124" fill="none" xmlns="http://www.w3.org/2000/svg">
<circle cx="404.5" cy="61.5" r="25" stroke="url(#paint0_linear_606_372)" stroke-opacity="0.3"/>
<g filter="url(#filter0_dd_606_372)">
<path d="M405.897 72.7922L417.483 59.4661C417.655 59.2685 417.789 59.0361 417.878 58.7825C417.966 58.5288 418.008 58.2588 417.999 57.988C417.99 57.7172 417.932 57.4509 417.827 57.2044C417.723 56.9579 417.574 56.736 417.389 56.5516L411.4 50.5511C411.044 50.1979 410.579 50.0012 410.095 50H398.906C398.422 50.0002 397.956 50.197 397.601 50.5511L391.61 56.5516C391.425 56.736 391.277 56.9577 391.172 57.204C391.068 57.4503 391.01 57.7163 391.001 57.9868C390.992 58.2573 391.034 58.527 391.122 58.7805C391.21 59.0339 391.344 59.2661 391.516 59.4637L403.102 72.7922C403.281 72.9981 403.497 73.1622 403.738 73.2744C403.978 73.3865 404.237 73.4444 404.499 73.4444C404.762 73.4444 405.021 73.3865 405.261 73.2744C405.502 73.1622 405.718 72.9981 405.897 72.7922ZM404.11 71.3864L399.862 61.0606C399.822 60.9622 399.804 60.8545 399.812 60.7472C399.82 60.64 399.853 60.5365 399.908 60.4463C399.962 60.356 400.037 60.2819 400.124 60.2305C400.212 60.1791 400.311 60.1521 400.411 60.1519H408.588C408.688 60.1523 408.786 60.1794 408.874 60.2308C408.962 60.2822 409.037 60.3563 409.091 60.4464C409.146 60.5365 409.179 60.6398 409.187 60.747C409.196 60.8542 409.179 60.962 409.139 61.0606L404.886 71.3864C404.853 71.4668 404.798 71.5351 404.729 71.5829C404.661 71.6308 404.58 71.6563 404.498 71.6563C404.416 71.6563 404.336 71.6308 404.267 71.5829C404.198 71.5351 404.144 71.4668 404.11 71.3864ZM415.623 57.7933L412.108 58.4375C412.033 58.452 411.957 58.449 411.883 58.4287C411.81 58.4084 411.741 58.3712 411.683 58.3198C411.624 58.2684 411.576 58.204 411.542 58.1309C411.509 58.0577 411.491 57.9777 411.488 57.8962L411.347 52.8043C411.35 52.7595 411.363 52.7161 411.387 52.679C411.41 52.642 411.443 52.6126 411.481 52.5941C411.519 52.5757 411.561 52.5688 411.603 52.5744C411.644 52.5799 411.683 52.5976 411.716 52.6255L415.889 56.8235C415.96 56.8952 416.011 56.9868 416.037 57.088C416.063 57.1893 416.062 57.2962 416.034 57.3968C416.006 57.4974 415.953 57.5878 415.881 57.6578C415.808 57.7279 415.719 57.7748 415.623 57.7933ZM412.267 59.7968L415.097 59.2212C415.143 59.2137 415.19 59.2214 415.232 59.2434C415.273 59.2655 415.308 59.3007 415.33 59.3445C415.353 59.3882 415.362 59.4384 415.358 59.4881C415.353 59.5379 415.334 59.5849 415.304 59.6229L408.146 68.0579C408.109 68.0971 408.06 68.1211 408.008 68.126C407.956 68.1309 407.903 68.1162 407.86 68.0846C407.817 68.053 407.785 68.0063 407.77 67.9523C407.755 67.8984 407.758 67.8406 407.778 67.7885L410.824 60.9846C410.961 60.6792 411.164 60.4127 411.414 60.2064C411.665 60.0001 411.957 59.8599 412.267 59.7968ZM410.107 51.5332L410.204 56.4095C410.206 56.4749 410.188 56.5389 410.154 56.5927C410.119 56.6465 410.07 56.6873 410.013 56.7092C409.955 56.7312 409.893 56.7332 409.835 56.715C409.777 56.6969 409.725 56.6594 409.688 56.6079L406.252 51.8589C406.201 51.7869 406.169 51.7007 406.16 51.6102C406.152 51.5197 406.167 51.4284 406.203 51.3465C406.24 51.2647 406.298 51.1954 406.369 51.1466C406.44 51.0979 406.523 51.0714 406.608 51.0703L409.663 51.0556C409.779 51.0587 409.891 51.11 409.973 51.1989C410.056 51.2878 410.104 51.4075 410.107 51.5332ZM408.447 58.7265H400.561C400.467 58.726 400.375 58.6974 400.296 58.6437C400.216 58.5901 400.152 58.5136 400.111 58.4229C400.07 58.3322 400.053 58.2309 400.063 58.1305C400.072 58.0301 400.108 57.9345 400.165 57.8546L404.005 52.4933C404.064 52.4115 404.139 52.3453 404.224 52.2997C404.31 52.2541 404.405 52.2303 404.501 52.2303C404.596 52.2303 404.691 52.2541 404.777 52.2997C404.863 52.3453 404.937 52.4115 404.996 52.4933L408.845 57.8546C408.903 57.9347 408.938 58.0305 408.948 58.1311C408.957 58.2318 408.94 58.3332 408.899 58.424C408.857 58.5148 408.793 58.5912 408.713 58.6447C408.633 58.6982 408.541 58.7265 408.447 58.7265ZM399.341 51.0556L402.396 51.0703C402.48 51.0714 402.563 51.0979 402.634 51.1466C402.706 51.1954 402.763 51.2647 402.8 51.3465C402.837 51.4284 402.852 51.5197 402.843 51.6102C402.835 51.7007 402.803 51.7869 402.751 51.8589L399.311 56.6128C399.274 56.6648 399.223 56.7028 399.164 56.7213C399.106 56.7398 399.044 56.7379 398.987 56.7158C398.929 56.6938 398.88 56.6527 398.846 56.5985C398.812 56.5443 398.795 56.4799 398.797 56.4144L398.892 51.5381C398.894 51.4095 398.943 51.2867 399.028 51.1965C399.113 51.1062 399.228 51.0556 399.348 51.0556H399.341ZM397.638 52.8043L397.499 57.8962C397.496 57.9771 397.478 58.0564 397.445 58.1289C397.411 58.2014 397.364 58.2655 397.306 58.3167C397.248 58.3679 397.18 58.4052 397.107 58.4261C397.034 58.4469 396.959 58.4508 396.884 58.4375L393.376 57.7933C393.278 57.7774 393.185 57.7316 393.11 57.6611C393.035 57.5907 392.98 57.4986 392.952 57.3956C392.923 57.2927 392.923 57.1833 392.951 57.0802C392.978 56.9771 393.033 56.8846 393.108 56.8137L397.28 52.6255C397.313 52.599 397.352 52.5824 397.393 52.5776C397.434 52.5728 397.475 52.5799 397.512 52.5982C397.549 52.6165 397.581 52.6454 397.605 52.6816C397.628 52.7179 397.642 52.7603 397.645 52.8043H397.638ZM393.902 59.2188L396.734 59.7968C397.044 59.8601 397.336 60.0008 397.586 60.2075C397.837 60.4142 398.038 60.6813 398.175 60.9871L401.223 67.7885C401.243 67.8406 401.246 67.8984 401.231 67.9523C401.216 68.0063 401.184 68.053 401.141 68.0846C401.098 68.1162 401.046 68.1309 400.993 68.126C400.941 68.1211 400.892 68.0971 400.855 68.0579L393.695 59.6204C393.665 59.5825 393.646 59.5355 393.641 59.4857C393.636 59.4359 393.646 59.3858 393.669 59.342C393.691 59.2983 393.726 59.263 393.767 59.241C393.809 59.219 393.856 59.2112 393.902 59.2188Z" fill="white"/>
</g>
<line x1="379" y1="63.5" x2="-4.37114e-08" y2="63.5" stroke="url(#paint1_linear_606_372)" stroke-opacity="0.3"/>
<line y1="-0.5" x2="379" y2="-0.5" transform="matrix(1 -8.74228e-08 -8.74228e-08 -1 430 63)" stroke="url(#paint2_linear_606_372)" stroke-opacity="0.3"/>
<defs>
<filter id="filter0_dd_606_372" x="341" y="0" width="127" height="123.444" filterUnits="userSpaceOnUse" color-interpolation-filters="sRGB">
<feFlood flood-opacity="0" result="BackgroundImageFix"/>
<feColorMatrix in="SourceAlpha" type="matrix" values="0 0 0 0 0 0 0 0 0 0 0 0 0 0 0 0 0 0 127 0" result="hardAlpha"/>
<feOffset/>
<feGaussianBlur stdDeviation="25"/>
<feComposite in2="hardAlpha" operator="out"/>
<feColorMatrix type="matrix" values="0 0 0 0 1 0 0 0 0 1 0 0 0 0 1 0 0 0 0.25 0"/>
<feBlend mode="normal" in2="BackgroundImageFix" result="effect1_dropShadow_606_372"/>
<feColorMatrix in="SourceAlpha" type="matrix" values="0 0 0 0 0 0 0 0 0 0 0 0 0 0 0 0 0 0 127 0" result="hardAlpha"/>
<feOffset dy="4"/>
<feGaussianBlur stdDeviation="6"/>
<feComposite in2="hardAlpha" operator="out"/>
<feColorMatrix type="matrix" values="0 0 0 0 1 0 0 0 0 1 0 0 0 0 1 0 0 0 0.25 0"/>
<feBlend mode="normal" in2="effect1_dropShadow_606_372" result="effect2_dropShadow_606_372"/>
<feBlend mode="normal" in="SourceGraphic" in2="effect2_dropShadow_606_372" result="shape"/>
</filter>
<linearGradient id="paint0_linear_606_372" x1="402.578" y1="34.6058" x2="420.789" y2="43.134" gradientUnits="userSpaceOnUse">
<stop stop-color="white"/>
<stop offset="1" stop-color="white" stop-opacity="0"/>
</linearGradient>
<linearGradient id="paint1_linear_606_372" x1="339" y1="63" x2="41.5" y2="63" gradientUnits="userSpaceOnUse">
<stop stop-color="white"/>
<stop offset="1" stop-color="white" stop-opacity="0"/>
</linearGradient>
<linearGradient id="paint2_linear_606_372" x1="40" y1="-3.49691e-06" x2="337.5" y2="-2.95051e-05" gradientUnits="userSpaceOnUse">
<stop stop-color="white"/>
<stop offset="1" stop-color="white" stop-opacity="0"/>
</linearGradient>
</defs>
</svg>
