<svg width="217" height="22" viewBox="0 0 217 22" fill="none" xmlns="http://www.w3.org/2000/svg">
<g clip-path="url(#clip0_606_419)">
<path d="M156.221 21.3886L167.92 8.8832C168.094 8.69757 168.229 8.4795 168.318 8.24148C168.408 8.00347 168.449 7.75018 168.44 7.49612C168.432 7.24207 168.373 6.99223 168.267 6.76093C168.162 6.52962 168.012 6.32138 167.825 6.14814L161.778 0.517133C161.42 0.184904 160.949 0.000200215 160.46 0L149.154 0C148.665 0.00110425 148.195 0.185684 147.836 0.517133L141.784 6.14814C141.598 6.32149 141.448 6.52983 141.343 6.76121C141.238 6.99258 141.18 7.24242 141.172 7.49637C141.164 7.75031 141.206 8.00336 141.296 8.24096C141.386 8.47857 141.522 8.69605 141.697 8.8809C144.416 11.786 150.61 18.4053 153.405 21.3886C153.586 21.5804 153.804 21.7331 154.046 21.8375C154.288 21.9419 154.549 21.9958 154.813 21.9958C155.076 21.9958 155.337 21.9419 155.579 21.8375C155.822 21.7331 156.04 21.5804 156.221 21.3886ZM154.413 20.0694L150.12 10.3794C150.08 10.2876 150.063 10.1873 150.071 10.0874C150.079 9.98756 150.112 9.89118 150.166 9.80684C150.22 9.72251 150.294 9.65282 150.382 9.60396C150.469 9.5551 150.567 9.52858 150.668 9.52674H158.949C159.05 9.52688 159.149 9.55221 159.238 9.60044C159.327 9.64868 159.402 9.71829 159.457 9.80298C159.512 9.88766 159.545 9.98473 159.553 10.0854C159.561 10.1861 159.544 10.2871 159.503 10.3794L155.202 20.0694C155.168 20.1462 155.113 20.2115 155.043 20.2575C154.973 20.3034 154.891 20.3278 154.807 20.3278C154.723 20.3278 154.641 20.3034 154.571 20.2575C154.501 20.2115 154.446 20.1462 154.413 20.0694ZM166.045 7.31341L162.496 7.91789C162.421 7.93075 162.344 7.92738 162.27 7.90798C162.197 7.88859 162.128 7.85363 162.069 7.80547C162.01 7.75731 161.962 7.69707 161.929 7.62883C161.895 7.56059 161.877 7.48595 161.875 7.40995L161.734 2.63163C161.737 2.59032 161.751 2.55054 161.775 2.5165C161.798 2.48245 161.831 2.45541 161.868 2.43822C161.906 2.42103 161.948 2.41434 161.989 2.41885C162.03 2.42336 162.069 2.43891 162.102 2.46385L166.31 6.40326C166.382 6.46986 166.435 6.55545 166.462 6.65037C166.488 6.74529 166.488 6.84576 166.46 6.94043C166.433 7.03509 166.379 7.12019 166.306 7.1861C166.232 7.25201 166.142 7.2961 166.045 7.31341ZM162.654 9.19348L165.516 8.65336C165.562 8.64626 165.61 8.65353 165.652 8.67421C165.694 8.69489 165.729 8.72799 165.752 8.76904C165.775 8.81009 165.784 8.85713 165.78 8.90384C165.775 8.95055 165.756 8.99468 165.725 9.0303L158.489 16.9459C158.451 16.9826 158.401 17.0052 158.348 17.0098C158.296 17.0143 158.243 17.0006 158.199 16.9709C158.156 16.9412 158.123 16.8974 158.108 16.8468C158.093 16.7962 158.096 16.7419 158.116 16.6931L161.196 10.3082C161.335 10.0213 161.539 9.77104 161.792 9.57744C162.046 9.38383 162.341 9.25232 162.654 9.19348ZM160.474 1.43878L160.57 6.01483C160.573 6.07622 160.555 6.1367 160.521 6.18754C160.486 6.23838 160.436 6.27695 160.378 6.29767C160.321 6.31839 160.258 6.3202 160.199 6.30282C160.14 6.28544 160.088 6.24979 160.051 6.201L156.568 1.74446C156.516 1.67681 156.484 1.59599 156.475 1.51106C156.466 1.42613 156.481 1.34045 156.518 1.26361C156.556 1.18677 156.614 1.12182 156.686 1.07604C156.758 1.03025 156.841 1.00544 156.927 1.00439L160.014 0.990598C160.134 0.99056 160.249 1.03741 160.335 1.12115C160.421 1.20488 160.471 1.31887 160.474 1.43878ZM158.797 8.18909H150.82C150.725 8.18911 150.631 8.16252 150.551 8.11234C150.47 8.06217 150.405 7.99042 150.363 7.90523C150.321 7.82004 150.304 7.72483 150.314 7.63038C150.323 7.53593 150.359 7.44603 150.417 7.37087L154.307 2.33974C154.366 2.263 154.441 2.20083 154.528 2.15804C154.615 2.11525 154.71 2.09299 154.807 2.09299C154.904 2.09299 154.999 2.11525 155.086 2.15804C155.173 2.20083 155.249 2.263 155.307 2.33974L159.197 7.37087C159.255 7.44587 159.291 7.53556 159.3 7.62981C159.31 7.72405 159.293 7.8191 159.251 7.9042C159.21 7.98931 159.145 8.06109 159.065 8.11143C158.984 8.16178 158.892 8.18868 158.797 8.18909ZM149.596 0.990598L152.683 1.00439C152.768 1.00544 152.852 1.03025 152.924 1.07604C152.996 1.12182 153.054 1.18677 153.091 1.26361C153.128 1.34045 153.143 1.42613 153.135 1.51106C153.126 1.59599 153.094 1.67681 153.042 1.74446L149.566 6.2056C149.528 6.25388 149.476 6.28904 149.417 6.30611C149.358 6.32317 149.295 6.32127 149.238 6.30067C149.18 6.28007 149.13 6.24182 149.095 6.19134C149.06 6.14086 149.042 6.08071 149.044 6.01943L149.143 1.44338C149.144 1.32266 149.194 1.20751 149.28 1.12279C149.366 1.03807 149.482 0.990584 149.603 0.990598H149.596ZM147.875 2.63163L147.733 7.40995C147.73 7.48572 147.712 7.56013 147.678 7.62818C147.645 7.69624 147.597 7.75634 147.539 7.80447C147.48 7.85259 147.412 7.88761 147.339 7.90717C147.265 7.92674 147.189 7.93039 147.114 7.91789L143.562 7.31341C143.463 7.29799 143.37 7.25473 143.294 7.18867C143.219 7.1226 143.163 7.03644 143.135 6.94018C143.106 6.84393 143.105 6.74152 143.132 6.64486C143.16 6.54819 143.214 6.46123 143.288 6.39407L147.505 2.45466C147.538 2.42668 147.579 2.40887 147.623 2.4033C147.666 2.39773 147.71 2.40464 147.75 2.42321C147.789 2.44179 147.823 2.47127 147.846 2.50818C147.87 2.5451 147.882 2.58792 147.882 2.63163H147.875ZM144.1 8.65107L146.96 9.19348C147.273 9.25291 147.568 9.3849 147.822 9.57888C148.075 9.77285 148.279 10.0234 148.418 10.3105L151.496 16.6931C151.516 16.7419 151.519 16.7962 151.504 16.8468C151.488 16.8974 151.456 16.9412 151.412 16.9709C151.369 17.0006 151.316 17.0143 151.263 17.0098C151.211 17.0052 151.161 16.9826 151.123 16.9459L143.891 9.028C143.861 8.99238 143.842 8.94825 143.837 8.90154C143.832 8.85484 143.842 8.80779 143.865 8.76674C143.887 8.72569 143.922 8.69259 143.964 8.67192C144.007 8.65123 144.054 8.64396 144.1 8.65107Z" fill="#F5DED7"/>
<path d="M6.36713 16.369H4.60053V3.64524H0V2.03638H10.97V3.64524H6.36943L6.36713 16.369Z" fill="#F5DED7"/>
<path d="M11.3955 5.69067H13.1598V9.76339H15.0851C15.646 9.75953 16.2063 9.80336 16.7597 9.89439C17.2431 9.97277 17.7032 10.1564 18.1077 10.4322C18.4684 10.6986 18.7576 11.0499 18.9496 11.455C19.1587 11.9367 19.2585 12.4586 19.2417 12.9834C19.2358 13.5043 19.1223 14.0184 18.9082 14.4934C18.7253 14.8764 18.4662 15.2182 18.1468 15.4978C17.743 15.8213 17.2711 16.0491 16.7666 16.1643C16.2228 16.3007 15.6642 16.3694 15.1035 16.3689H11.3955V5.69067ZM13.728 14.8681C14.2402 14.8681 14.757 14.8581 15.2784 14.8382C15.7451 14.8312 16.2048 14.7238 16.6263 14.5233C16.891 14.4127 17.1112 14.217 17.252 13.9671C17.4122 13.6867 17.4992 13.3706 17.505 13.0478C17.5248 12.6979 17.4365 12.3505 17.252 12.0526C17.0916 11.8151 16.8665 11.6285 16.6033 11.5147C16.3228 11.3977 16.0254 11.3263 15.7223 11.3033C15.398 11.2757 15.0782 11.2619 14.7677 11.2619H13.1575V14.8681H13.728ZM20.7231 16.3689V5.69067H22.446V16.3689H20.7231Z" fill="#F5DED7"/>
<path d="M30.9623 14.7096C31.3423 14.7125 31.722 14.6887 32.0986 14.6384C32.4223 14.5945 32.7368 14.4991 33.0302 14.3557C33.3297 14.2023 33.6011 13.9995 33.833 13.7558C34.1191 13.4468 34.3607 13.0995 34.5507 12.7238L28.7725 2.0249H30.8611L35.5651 10.8966L39.1743 2.0249H41.0812C40.6487 2.99635 40.2193 3.99231 39.793 5.01278C39.3667 6.03326 38.9373 7.05603 38.5049 8.08111C38.1798 8.84723 37.8455 9.62714 37.502 10.4208C37.1585 11.2146 36.7965 11.9807 36.4162 12.7192C36.171 13.2145 35.8968 13.6949 35.595 14.158C35.336 14.5664 35.0269 14.9409 34.6749 15.2727C34.2102 15.6994 33.6454 16.0022 33.0326 16.153C32.3532 16.3047 31.6584 16.3765 30.9623 16.3667V14.7096Z" fill="#F5DED7"/>
<path d="M41.4053 16.3689V5.69067H43.1282V10.3702H48.4809V5.69067H50.2061V16.3689H48.4809V11.8894H43.1282V16.3689H41.4053Z" fill="#F5DED7"/>
<path d="M54.1994 16.3689H52.5156V5.69067H54.2408V13.8752C54.3523 13.6592 54.4807 13.4525 54.625 13.2569C54.7883 13.0271 54.9148 12.8639 55.0114 12.7421L60.1801 5.69067H61.8777V16.3689H60.1548V8.18211C60.0507 8.3819 59.9347 8.57531 59.8075 8.7613C59.6786 8.94287 59.5613 9.10145 59.4532 9.23706L54.1994 16.3689Z" fill="#F5DED7"/>
<path d="M64.1953 16.3689V5.69067H65.9182V10.2874H67.7837L70.9466 5.69067H72.9179L69.3456 10.777L73.2169 16.3689H71.1904L67.9862 11.7882H65.9159V16.3689H64.1953Z" fill="#F5DED7"/>
<path d="M81.1459 15.0107C80.9313 15.3076 80.6629 15.5617 80.3546 15.76C80.0667 15.9446 79.7578 16.0942 79.4345 16.2059C79.1255 16.3139 78.8065 16.3909 78.4822 16.4357C78.1695 16.476 77.8544 16.496 77.5391 16.4955C77.06 16.4985 76.5827 16.4374 76.1198 16.3139C75.6842 16.1974 75.275 15.9985 74.9145 15.7278C74.542 15.4507 74.2415 15.0884 74.0382 14.6713C73.8349 14.2542 73.7347 13.7944 73.746 13.3306C73.728 12.8013 73.8426 12.2759 74.0795 11.8022C74.2972 11.4006 74.609 11.0576 74.9881 10.8024C75.3848 10.5395 75.8296 10.3575 76.297 10.2669C76.8142 10.1634 77.3406 10.1125 77.868 10.1152H81.0102C81.0102 9.20963 80.8147 8.49024 80.4236 7.95702C80.0326 7.4238 79.3709 7.1411 78.4385 7.10892C77.9244 7.09856 77.4137 7.19481 76.9387 7.39162C76.733 7.47631 76.5474 7.6031 76.3936 7.76381C76.2399 7.92452 76.1216 8.1156 76.0462 8.32476H74.206C74.2829 7.86992 74.4727 7.44162 74.7581 7.07904C75.0415 6.73616 75.3853 6.44795 75.7725 6.22864C76.175 6.00221 76.6081 5.83501 77.0584 5.7322C77.5105 5.62439 77.9737 5.56963 78.4385 5.56901C79.13 5.55206 79.8164 5.69111 80.4466 5.97582C80.962 6.21527 81.4159 6.569 81.7739 7.01009C82.1259 7.46555 82.3691 7.99543 82.4847 8.55919C82.6266 9.23163 82.6945 9.91755 82.6871 10.6047V16.3691H81.2471L81.1459 15.0107ZM79.1286 11.5471C78.8043 11.5471 78.4385 11.5471 78.0015 11.5471C77.5896 11.5525 77.1791 11.5963 76.7754 11.6781C76.4151 11.7431 76.0848 11.921 75.8323 12.186C75.5873 12.4644 75.4602 12.827 75.4781 13.1973C75.4689 13.4721 75.5315 13.7446 75.6598 13.9879C75.7758 14.2067 75.9392 14.3967 76.1382 14.5441C76.3555 14.6968 76.5998 14.8068 76.8582 14.8682C77.1305 14.9366 77.4102 14.9706 77.6909 14.9693C78.703 14.9693 79.5058 14.7234 80.0924 14.2316C80.679 13.7397 80.9826 13.018 80.9941 12.0734V11.5471H79.1286Z" fill="#F5DED7"/>
<path d="M85.9523 11.3631C86.0213 10.3916 86.0719 9.44621 86.1041 8.52686C86.1363 7.60751 86.1601 6.66212 86.1754 5.69067H93.5984V16.3689H91.8732V7.2099H87.8707L87.689 11.4044C87.6614 11.9438 87.6001 12.5513 87.505 13.227C87.4201 13.8698 87.2214 14.4924 86.9184 15.0657C86.6904 15.4556 86.3696 15.7832 85.9845 16.0195C85.5752 16.2674 85.1036 16.3934 84.625 16.3827H83.9971V14.8681C84.2541 14.8725 84.508 14.8115 84.735 14.6909C84.9619 14.5703 85.1544 14.394 85.2944 14.1786C85.5192 13.8195 85.6709 13.4196 85.7407 13.0018C85.8495 12.4612 85.9202 11.9136 85.9523 11.3631Z" fill="#F5DED7"/>
<path d="M95.9072 5.69067H97.6715V9.76339H100.025C100.588 9.75985 101.15 9.80367 101.706 9.89439C102.19 9.96718 102.651 10.1513 103.052 10.4322C103.414 10.6973 103.703 11.049 103.894 11.455C104.104 11.9365 104.204 12.4584 104.188 12.9834C104.194 13.5046 104.083 14.0205 103.864 14.4934C103.661 14.9186 103.363 15.2909 102.991 15.5809C102.62 15.8709 102.186 16.0707 101.725 16.1643C101.178 16.3002 100.616 16.3689 100.052 16.3689H95.9118L95.9072 5.69067ZM98.6813 14.8681C99.1943 14.8681 99.7096 14.8681 100.223 14.8382C100.686 14.8301 101.143 14.7228 101.561 14.5233C101.823 14.4107 102.04 14.2153 102.18 13.9671C102.339 13.6863 102.426 13.3704 102.433 13.0478C102.451 12.6988 102.363 12.3526 102.18 12.0549C102.018 11.8184 101.794 11.6321 101.531 11.517C101.25 11.4 100.952 11.3286 100.648 11.3056C100.324 11.278 100.007 11.2642 99.6958 11.2642H97.6669V14.8681H98.6813Z" fill="#F5DED7"/>
<path d="M106.026 16.3689V5.69067H107.749V10.3702H113.102V5.69067H114.827V16.3689H113.102V11.8894H107.749V16.3689H106.026Z" fill="#F5DED7"/>
<path d="M124.173 15.0105C123.959 15.3068 123.691 15.5608 123.384 15.7598C123.096 15.9439 122.787 16.0935 122.464 16.2057C122.154 16.3135 121.835 16.3905 121.51 16.4355C121.197 16.4758 120.882 16.4957 120.566 16.4953C120.09 16.4992 119.615 16.4396 119.154 16.3183C118.718 16.2018 118.309 16.0029 117.949 15.7322C117.575 15.4545 117.274 15.0916 117.069 14.6738C116.865 14.256 116.763 13.7954 116.773 13.3304C116.755 12.8011 116.87 12.2757 117.107 11.802C117.321 11.4013 117.629 11.0583 118.004 10.8022C118.4 10.5393 118.844 10.3573 119.311 10.2667C119.828 10.1633 120.354 10.1125 120.882 10.115H124.026C124.026 9.20942 123.828 8.49003 123.437 7.95681C123.046 7.42359 122.384 7.14319 121.45 7.11561C120.936 7.10524 120.425 7.2015 119.95 7.3983C119.745 7.48385 119.56 7.61093 119.406 7.77152C119.252 7.93212 119.134 8.12277 119.057 8.33144H117.217C117.298 7.87467 117.493 7.44591 117.785 7.08573C118.068 6.7424 118.411 6.45409 118.798 6.23533C119.197 6.00732 119.627 5.83781 120.074 5.73199C120.526 5.62419 120.99 5.56942 121.454 5.5688C122.15 5.55011 122.84 5.6892 123.474 5.97561C123.99 6.21505 124.445 6.56874 124.804 7.00988C125.154 7.46606 125.396 7.99572 125.512 8.55898C125.654 9.23142 125.722 9.91735 125.714 10.6045V16.3688H124.274L124.173 15.0105ZM122.144 11.5469C121.82 11.5469 121.454 11.5469 121.02 11.5469C120.607 11.5524 120.196 11.5962 119.791 11.6779C119.431 11.7429 119.101 11.9208 118.848 12.1858C118.604 12.4648 118.477 12.827 118.494 13.1971C118.485 13.4721 118.549 13.7446 118.678 13.9877C118.799 14.2055 118.968 14.3926 119.172 14.5347C119.39 14.687 119.634 14.7969 119.892 14.8588C120.165 14.9272 120.444 14.9612 120.725 14.9599C121.739 14.9599 122.539 14.714 123.127 14.2222C123.714 13.7303 124.015 13.0109 124.031 12.064V11.5469H122.144Z" fill="#F5DED7"/>
<path d="M136.097 16.369H134.372V12.4112H131.92L129.323 16.369H127.317L130.094 12.1538C129.401 11.9844 128.773 11.6142 128.29 11.0897C127.835 10.5334 127.59 9.83416 127.6 9.11537C127.562 8.51853 127.678 7.9219 127.936 7.3824C128.16 6.9573 128.482 6.59228 128.877 6.31825C129.269 6.04426 129.721 5.86704 130.195 5.80112C130.728 5.72514 131.266 5.68827 131.805 5.6908H136.104L136.097 16.369ZM134.372 7.21002L132.072 7.18933C131.734 7.18933 131.382 7.20312 131.048 7.2307C130.726 7.25168 130.412 7.34184 130.128 7.49502C129.894 7.63307 129.701 7.83254 129.572 8.07191C129.418 8.36957 129.339 8.70005 129.342 9.03492C129.344 9.35972 129.436 9.67761 129.606 9.95427C129.778 10.2119 130.017 10.4184 130.296 10.5518C130.707 10.7448 131.152 10.855 131.605 10.8759C132.086 10.9035 132.583 10.915 133.096 10.915H134.372V7.21002Z" fill="#F5DED7"/>
<path d="M175.758 16.369H173.994V2.04321H175.758V8.64873H177.886L182.551 2.04321H184.578L179.42 9.15437L184.619 16.369H182.53L178.04 10.2484H175.77L175.758 16.369Z" fill="#F5DED7"/>
<path d="M186.851 11.3631C186.918 10.3916 186.969 9.44621 187.002 8.52686C187.036 7.60751 187.06 6.66212 187.074 5.69067H194.494V16.3689H192.762V7.2099H188.755L188.573 11.4044C188.546 11.9438 188.485 12.5513 188.392 13.227C188.305 13.8698 188.106 14.4922 187.803 15.0657C187.576 15.4554 187.256 15.7831 186.871 16.0195C186.462 16.2666 185.99 16.3925 185.512 16.3827H184.884V14.8681C185.141 14.8725 185.395 14.8115 185.622 14.6909C185.849 14.5703 186.041 14.394 186.181 14.1786C186.405 13.8191 186.557 13.4193 186.627 13.0018C186.739 12.4612 186.813 11.9137 186.851 11.3631Z" fill="#F5DED7"/>
<path d="M204.494 5.69067H206.44L203.415 14.0981C203.261 14.5302 203.09 15.0198 202.899 15.5668C202.709 16.1138 202.506 16.6608 202.29 17.2078C202.073 17.7404 201.823 18.2586 201.54 18.7592C201.301 19.1989 200.99 19.5958 200.62 19.9337C200.215 20.3258 199.721 20.6143 199.18 20.7749C198.668 20.8958 198.144 20.9537 197.618 20.9473H197.255V19.3062C197.672 19.3152 198.088 19.2641 198.49 19.1545C198.815 19.0597 199.116 18.8967 199.373 18.6765C199.635 18.4468 199.855 18.173 200.022 17.8674C200.228 17.4948 200.414 17.1111 200.578 16.7183L195.794 5.69757H197.823L201.531 14.6865L204.494 5.69067Z" fill="#F5DED7"/>
<path d="M208.93 8.1017C209.126 7.82472 209.367 7.5817 209.641 7.38231C209.916 7.18755 210.211 7.02411 210.522 6.89505C210.835 6.76168 211.161 6.66302 211.495 6.60086C211.813 6.54237 212.136 6.51237 212.459 6.51123C213.121 6.4993 213.778 6.6156 214.396 6.85368C214.937 7.07053 215.422 7.40681 215.815 7.83739C216.211 8.28182 216.511 8.80287 216.696 9.3681C216.906 10.0081 217.008 10.6782 217 11.3516C217.008 12.0401 216.902 12.7252 216.685 13.3788C216.485 13.9806 216.164 14.5357 215.744 15.0106C215.317 15.4759 214.794 15.8436 214.212 16.0885C213.556 16.3608 212.851 16.4946 212.142 16.4816C211.364 16.5066 210.591 16.3434 209.89 16.0058C209.298 15.7107 208.788 15.275 208.404 14.7371C208.013 14.1558 207.734 13.5064 207.583 12.8226C207.411 12.1053 207.316 11.3718 207.3 10.6345C207.266 10.1994 207.256 9.76287 207.27 9.32673C207.27 8.67093 207.3 8.08025 207.359 7.55469C207.414 7.02208 207.509 6.4943 207.642 5.97571C207.756 5.50705 207.934 5.05672 208.174 4.63806C208.49 4.03874 208.968 3.5402 209.554 3.19928C210.158 2.87432 210.813 2.6551 211.491 2.55114C211.719 2.50976 212.236 2.43315 213.041 2.3213L214.693 2.09146C214.95 2.06388 215.231 2.02711 215.535 1.97884C215.838 1.93058 216.139 1.88231 216.436 1.82715V3.40153C216.191 3.47807 215.94 3.5357 215.686 3.57391C215.39 3.62218 215.051 3.66584 214.674 3.70492C214.403 3.74629 214.122 3.78306 213.832 3.81754L212.94 3.91867C212.636 3.95314 212.172 4.0152 211.56 4.10943C211.161 4.15664 210.778 4.28828 210.435 4.49556C210.134 4.693 209.876 4.94759 209.673 5.24482C209.402 5.66102 209.213 6.12521 209.117 6.61236C209.01 7.10214 208.947 7.60064 208.93 8.1017ZM212.174 14.9692C212.633 14.9782 213.088 14.8815 213.503 14.6865C213.88 14.5037 214.212 14.2409 214.476 13.9166C214.747 13.5798 214.95 13.1944 215.074 12.7812C215.212 12.3345 215.28 11.8695 215.277 11.4022C215.28 10.9515 215.209 10.5033 215.065 10.076C214.934 9.6836 214.731 9.31889 214.467 9.00036C214.212 8.69826 213.893 8.45648 213.533 8.29246C213.111 8.11194 212.654 8.02567 212.195 8.03964C211.747 8.04387 211.306 8.1401 210.897 8.32234C210.523 8.49553 210.191 8.74808 209.924 9.06242C209.653 9.38439 209.449 9.75708 209.324 10.1587C209.184 10.5734 209.107 11.0063 209.094 11.4435C209.091 11.9002 209.155 12.3548 209.285 12.7927C209.405 13.2007 209.601 13.5822 209.864 13.9166C210.123 14.2423 210.451 14.5055 210.826 14.6865C211.248 14.8827 211.709 14.9794 212.174 14.9692Z" fill="#F5DED7"/>
</g>
<defs>
<clipPath id="clip0_606_419">
<rect width="217" height="22" fill="white"/>
</clipPath>
</defs>
</svg>
